<svg xmlns="http://www.w3.org/2000/svg" viewBox="0 0 24 24" width="24" height="24" fill="none" stroke="currentColor" stroke-width="1.8" stroke-linecap="round" stroke-linejoin="round">
  <path d="M12 2C6.48 2 2 6.58 2 12.25c0 4.52 2.87 8.35 6.84 9.71.5.1.68-.22.68-.48 0-.24-.01-.88-.01-1.71-2.78.62-3.37-1.35-3.37-1.35-.46-1.17-1.12-1.47-1.12-1.47-.91-.63.07-.62.07-.62 1.01.07 1.53 1.04 1.53 1.04.89 1.54 2.34 1.1 2.91.84.09-.65.35-1.09.64-1.34-2.22-.26-4.56-1.13-4.56-4.99 0-1.11.39-2.01 1.03-2.71-.1-.25-.45-1.29.1-2.69 0 0 .84-.27 2.75 1.04A9.62 9.62 0 0 1 12 6.87c.86 0 1.71.12 2.51.34 1.91-1.31 2.75-1.04 2.75-1.04.55 1.4.2 2.44.1 2.69.64.7 1.03 1.6 1.03 2.71 0 3.87-2.34 4.75-4.57 5 .37.31.68.94.68 1.89 0 1.34-.01 2.42-.01 2.75 0 .27.18.58.69.48A10.08 10.08 0 0 0 22 12.25C22 6.58 17.52 2 12 2Z"/>
</svg>

